<?xml version="1.0" encoding="UTF-8"?>
<svg id="Layer_2" data-name="Layer 2" xmlns="http://www.w3.org/2000/svg" xmlns:xlink="http://www.w3.org/1999/xlink" viewBox="0 0 189.05 66.78">
  <defs>
    <style>
      .cls-1 {
        fill: url(#linear-gradient);
      }

      .cls-1, .cls-2, .cls-3, .cls-4, .cls-5, .cls-6, .cls-7 {
        stroke-width: 0px;
      }

      .cls-2 {
        fill: #6d6e71;
      }

      .cls-4 {
        fill: #59585a;
      }

      .cls-5 {
        fill: #fff;
      }

      .cls-6 {
        fill: #3a3a3c;
      }

      .cls-7 {
        fill: #828282;
      }
    </style>
    <linearGradient id="linear-gradient" x1="164.99" y1="56.16" x2="147.88" y2="32.93" gradientUnits="userSpaceOnUse">
      <stop offset=".14" stop-color="#828282"/>
      <stop offset=".96" stop-color="#fff"/>
    </linearGradient>
  </defs>
  <g id="Layer_1-2" data-name="Layer 1">
    <g>
      <g>
        <circle class="cls-2" cx="161.23" cy="38.96" r="27.82"/>
        <circle class="cls-4" cx="163.96" cy="39.49" r="18.01"/>
        <circle class="cls-6" cx="167.46" cy="43.53" r="12.8"/>
        <circle class="cls-3" cx="170.27" cy="47.08" r="7.77"/>
        <path class="cls-7" d="m161.23,11.13c-15.37,0-27.82,12.46-27.82,27.82s12.46,27.82,27.82,27.82,27.82-12.46,27.82-27.82-12.46-27.82-27.82-27.82Zm2.88,45.19c-9.21,0-16.68-7.47-16.68-16.68s7.47-16.68,16.68-16.68,16.68,7.47,16.68,16.68-7.47,16.68-16.68,16.68Z"/>
      </g>
      <g>
        <g>
          <path class="cls-5" d="m.27,26.52c-.19,0-.3-.15-.27-.34l3.18-12.92L6.03.34c.04-.19.23-.34.42-.34h8.56c6.86,0,12.12,3.86,12.12,11.06,0,10.42-8.41,15.46-16.67,15.46H.27Zm6.52-4.28h4.21c5.19,0,10.12-3.64,10.12-10.76,0-4.81-2.42-7.2-6.1-7.2h-4.05s-1.14,4.47-2.2,8.87c-1.02,4.51-1.97,9.06-1.97,9.09Z"/>
          <path class="cls-5" d="m38.69,26.52c-.15,0-.3-.15-.27-.34l.38-1.33c-1.44,1.29-3.22,2.05-5.3,2.05-5.23,0-8.41-4.74-6.78-11.63,1.02-4.43,3.9-8.64,9.36-8.64,2.8,0,5.04,1.17,6.18,3.41l.49-2.69c.04-.19.23-.34.42-.34h5.08c.19,0,.3.15.27.34l-2.27,9.43-2.08,9.4c-.04.19-.23.34-.42.34h-5.04Zm-2.99-3.41c2.42.04,4.05-1.82,4.93-5.38,1.02-4.62-.34-7.12-2.96-7.31h-.68c-2.24.15-3.79,2.01-4.55,5.49-1.14,4.7.38,7.24,3.26,7.2Z"/>
          <path class="cls-5" d="m45.97,26.52c-.19,0-.3-.15-.27-.34l2.27-9.43,2.08-9.4c.04-.19.23-.34.42-.34h4.93c.19,0,.3.15.27.34l-.8,2.96c2.01-2.27,4.7-3.45,7.39-3.45.3,0,.57.04.83.08.19.04.3.23.27.42l-.83,3.52c-.04.19-.19.3-.42.3-.19-.04-.45-.04-.68-.04-3.45,0-7.2,2.61-8.15,6.71l-1.89,8.34c-.04.19-.23.34-.42.34h-5Z"/>
          <path class="cls-5" d="m70.9,22.43l-1.63-4.85-2.96,2.84-1.25,5.76c-.04.19-.23.34-.42.34h-4.96c-.19,0-.3-.15-.27-.34l3.11-12.92,2.8-12.92c.04-.19.23-.34.42-.34h5c.19,0,.3.15.27.34l-3.11,12.81-.04.23,6.36-6.14c.11-.15.38-.23.57-.23h6.33c.11,0,.19.15.08.23l-7.62,6.78,4.21,12.16c.08.19-.04.34-.23.34h-5.15c-.19,0-.38-.15-.42-.34l-1.1-3.75Z"/>
          <path class="cls-5" d="m78.56,26.52c-.19,0-.3-.15-.27-.34l3.18-12.92,2.8-12.92c.04-.19.23-.34.42-.34h5.19c.19,0,.3.15.27.34l-3.07,12.58-2.01,9.32h10.76c.19,0,.3.15.27.34l-.83,3.6c-.04.19-.23.34-.42.34h-16.29Z"/>
          <path class="cls-5" d="m107.54,6.52c5.19,0,8.9,3.11,8.9,8.18,0,7.08-4.7,12.31-11.37,12.31-5.19,0-8.98-3.11-8.98-8.22,0-7.31,4.77-12.28,11.44-12.28Zm-2.27,16.71c3.18,0,5.38-3.03,5.38-8.75,0-2.8-1.33-4.17-3.41-4.17-3.22,0-5.42,3.18-5.42,8.87,0,2.77,1.33,4.05,3.45,4.05Z"/>
          <path class="cls-5" d="m128,6.52c5.19,0,8.9,3.11,8.9,8.18,0,7.08-4.7,12.31-11.37,12.31-5.19,0-8.98-3.11-8.98-8.22,0-7.31,4.77-12.28,11.44-12.28Zm-2.27,16.71c3.18,0,5.38-3.03,5.38-8.75,0-2.8-1.33-4.17-3.41-4.17-3.22,0-5.42,3.18-5.42,8.87,0,2.77,1.33,4.05,3.45,4.05Z"/>
        </g>
        <path class="cls-1" d="m161.23,56.08s0,4.81,0,10.7c-19.64,0-31.15-18.83-27.08-34.36l3.29-13.82,2.5-11.25c.04-.19.23-.34.42-.34h5c.19,0,.3.15.26.34l-.38,1.33c1.44-1.29,3.22-2.05,5.3-2.05,5.23,0,8.41,4.74,6.78,11.63-1.02,4.43-3.9,8.64-9.36,8.64-2.77,0-4.93-1.14-6.1-3.26l-1.97,8.98c-1.96,21.53,21.33,23.45,21.33,23.45Zm-14.51-32.96c2.42,0,4.05-1.82,4.89-5.49,1.1-4.7-.38-7.2-3.26-7.2-2.42,0-4.09,1.82-4.93,5.38-1.1,4.81.46,7.31,3.3,7.31Z"/>
      </g>
      <g>
        <path class="cls-5" d="m92.31,41.4c-.06,0-.11-.06-.1-.13l1.19-4.79.7-3.33h-2.71c-.06,0-.11-.06-.1-.13l.31-1.33c.01-.07.08-.13.15-.13h7.62c.07,0,.11.06.1.13l-.31,1.33c-.01.07-.08.13-.15.13h-2.71l-.84,3.33-1.01,4.79c-.01.07-.08.13-.15.13h-1.98Z"/>
        <path class="cls-5" d="m98.8,41.4c-.07,0-.11-.06-.1-.13l1.17-4.79,1.05-4.79c.01-.07.08-.13.15-.13h6.63c.07,0,.11.06.1.13l-.31,1.33c-.01.07-.08.13-.15.13h-4.6l-.56,2.26h4.22c.07,0,.11.06.1.13l-.31,1.33c-.01.07-.08.13-.15.13h-4.22l-.62,2.81h4.71c.07,0,.11.06.1.13l-.31,1.33c-.01.07-.08.13-.15.13h-6.75Z"/>
        <path class="cls-5" d="m116.9,38.04c.07,0,.11.06.1.13-.59,2.01-2.22,3.44-4.58,3.44-2.74,0-4.58-1.81-4.58-4.3,0-3.34,2.23-5.96,5.57-5.96,2.25,0,4.13,1.25,4.2,3.78,0,.07-.06.13-.13.13h-1.84c-.07,0-.13-.06-.13-.13-.04-1.22-.83-2.14-2.29-2.14-2.21,0-3.18,2.15-3.18,4.29,0,1.64.89,2.68,2.39,2.68,1.14,0,2.08-.59,2.43-1.8.01-.07.08-.13.15-.13h1.88Z"/>
        <path class="cls-5" d="m124.23,41.4c-.06,0-.11-.06-.1-.13l1.07-4.33h-4.31l-.96,4.33c-.01.07-.08.13-.15.13h-1.94c-.07,0-.11-.06-.1-.13l1.18-4.79,1.04-4.79c.01-.07.08-.13.15-.13h1.94c.07,0,.11.06.1.13l-.9,3.67h4.3l.79-3.67c.01-.07.08-.13.15-.13h1.94c.07,0,.11.06.1.13l-1.21,4.79-1.01,4.79c-.01.07-.08.13-.15.13h-1.93Z"/>
        <path class="cls-5" d="m47.08,54.28c-.06,0-.11-.06-.1-.13l1.19-4.79.7-3.33h-2.71c-.06,0-.11-.06-.1-.13l.31-1.33c.01-.07.08-.13.15-.13h7.62c.07,0,.11.06.1.13l-.31,1.33c-.01.07-.08.13-.15.13h-2.71l-.84,3.33-1.01,4.79c-.01.07-.08.13-.15.13h-1.98Z"/>
        <path class="cls-5" d="m59.93,54.28c-.06,0-.11-.06-.1-.13l1.07-4.33h-4.31l-.96,4.33c-.01.07-.08.13-.15.13h-1.94c-.07,0-.11-.06-.1-.13l1.18-4.79,1.04-4.79c.01-.07.08-.13.15-.13h1.94c.07,0,.11.06.1.13l-.9,3.67h4.3l.79-3.67c.01-.07.08-.13.15-.13h1.94c.07,0,.11.06.1.13l-1.21,4.79-1.01,4.79c-.01.07-.08.13-.15.13h-1.93Z"/>
        <path class="cls-5" d="m69.11,54.49c-2.75,0-4.46-1.69-4.46-4.16,0-3.43,2.45-6.1,5.69-6.1,2.74,0,4.48,1.59,4.48,4.1,0,3.25-2.4,6.16-5.72,6.16Zm.11-1.64c2.11,0,3.39-2.01,3.39-4.43,0-1.59-.9-2.54-2.36-2.54-2.09,0-3.39,2.07-3.39,4.43,0,1.6.91,2.54,2.36,2.54Z"/>
        <path class="cls-5" d="m79.2,54.49c-2.47,0-3.79-1.49-3.25-3.86l.63-2.67.73-3.39c.01-.07.08-.13.15-.13h2c.07,0,.11.06.1.13l-.83,3.33-.63,2.71c-.32,1.41.06,2.18,1.41,2.18s2.09-.77,2.42-2.18l.6-2.67.76-3.37c.01-.07.08-.13.15-.13h1.78c.07,0,.11.06.1.13l-.81,3.39-.65,2.67c-.58,2.5-1.91,3.86-4.67,3.86Z"/>
        <path class="cls-5" d="m95.23,48.96c.07,0,.11.06.11.13-.67,3.91-2.67,5.41-5.34,5.41s-4.4-1.64-4.4-4.22c0-3.23,2.46-6.04,5.69-6.04,2.29,0,4.05,1.25,4.19,3.39t-2.08.01c-.07,0-.13-.06-.14-.13-.2-1.1-1.01-1.67-2.08-1.67-2,0-3.37,2.08-3.37,4.44,0,1.56.77,2.6,2.35,2.6,1.29,0,2.18-.58,2.56-2.38h-2.45c-.06,0-.11-.06-.1-.13l.29-1.29c.01-.07.08-.13.15-.13h4.61Z"/>
        <path class="cls-5" d="m102.33,54.28c-.06,0-.11-.06-.1-.13l1.07-4.33h-4.31l-.96,4.33c-.01.07-.08.13-.15.13h-1.94c-.07,0-.11-.06-.1-.13l1.18-4.79,1.04-4.79c.01-.07.08-.13.15-.13h1.94c.07,0,.11.06.1.13l-.9,3.67h4.3l.79-3.67c.01-.07.08-.13.15-.13h1.94c.07,0,.11.06.1.13l-1.21,4.79-1.01,4.79c-.01.07-.08.13-.15.13h-1.93Z"/>
        <path class="cls-5" d="m108.74,54.28c-.06,0-.11-.06-.1-.13l1.19-4.79.7-3.33h-2.71c-.06,0-.11-.06-.1-.13l.31-1.33c.01-.07.08-.13.15-.13h7.62c.07,0,.11.06.1.13l-.31,1.33c-.01.07-.08.13-.15.13h-2.71l-.84,3.33-1.01,4.79c-.01.07-.08.13-.15.13h-1.98Z"/>
        <path class="cls-5" d="m124.19,51.12c0,1.73-1.43,3.39-4.3,3.39-2.45,0-4.47-1.14-4.36-3.41.01-.07.07-.13.14-.13h1.98c.07,0,.13.06.13.13.08,1.11.79,1.81,2.25,1.81s1.88-.79,1.88-1.31c0-1.94-5.38-.84-5.38-4.12,0-1.69,1.36-3.25,4.23-3.25,2.15,0,3.85.84,3.98,2.99,0,.07-.06.13-.13.13h-2c-.07,0-.13-.06-.13-.13-.06-.82-.76-1.38-1.87-1.38s-1.85.48-1.85,1.19c0,1.8,5.42.86,5.42,4.08Z"/>
      </g>
    </g>
  </g>
</svg>